<?xml version="1.0" encoding="utf-8"?>
<!-- Generator: Adobe Illustrator 24.3.0, SVG Export Plug-In . SVG Version: 6.00 Build 0)  -->
<svg version="1.1" id="Capa_1" xmlns="http://www.w3.org/2000/svg" xmlns:xlink="http://www.w3.org/1999/xlink" x="0px" y="0px"
	 viewBox="0 0 328 328" style="enable-background:new 0 0 328 328;" xml:space="preserve">
<style type="text/css">
	.st0{fill:#4C4C4C;}
</style>
<path class="st0" d="M195.39,164c0,17.34-14.05,31.39-31.39,31.39s-31.39-14.05-31.39-31.39s14.05-31.39,31.39-31.39
	S195.39,146.66,195.39,164z"/>
<path class="st0" d="M237.41,108.46c-1.51-4.09-3.92-7.79-7.04-10.83c-3.04-3.13-6.74-5.54-10.83-7.04
	c-3.32-1.29-8.3-2.82-17.48-3.24c-9.93-0.45-12.91-0.55-38.05-0.55c-25.15,0-28.12,0.1-38.05,0.55c-9.18,0.42-14.17,1.95-17.48,3.24
	c-4.09,1.51-7.79,3.92-10.83,7.04c-3.13,3.04-5.54,6.74-7.05,10.83c-1.29,3.32-2.82,8.31-3.24,17.49
	c-0.45,9.93-0.55,12.91-0.55,38.05c0,25.14,0.1,28.12,0.55,38.05c0.42,9.18,1.95,14.17,3.24,17.48c1.51,4.09,3.92,7.79,7.04,10.83
	c3.04,3.13,6.74,5.54,10.83,7.04c3.32,1.29,8.31,2.83,17.49,3.24c9.93,0.45,12.91,0.55,38.05,0.55c25.15,0,28.13-0.1,38.05-0.55
	c9.18-0.42,14.17-1.95,17.49-3.24c8.21-3.17,14.7-9.66,17.87-17.87c1.29-3.32,2.82-8.3,3.24-17.48c0.45-9.93,0.55-12.91,0.55-38.05
	c0-25.15-0.1-28.12-0.55-38.05C240.24,116.77,238.7,111.78,237.41,108.46z M164,212.36c-26.71,0-48.36-21.65-48.36-48.36
	s21.65-48.36,48.36-48.36c26.71,0,48.36,21.65,48.36,48.36S190.71,212.36,164,212.36z M214.27,125.03c-6.24,0-11.3-5.06-11.3-11.3
	s5.06-11.3,11.3-11.3s11.3,5.06,11.3,11.3C225.57,119.97,220.51,125.03,214.27,125.03z"/>
<path class="st0" d="M164,0C73.44,0,0,73.44,0,164s73.44,164,164,164s164-73.44,164-164S254.56,0,164,0z M257.6,202.83
	c-0.46,10.02-2.05,16.87-4.38,22.86c-4.89,12.65-14.89,22.65-27.54,27.54c-5.99,2.33-12.84,3.92-22.86,4.38
	c-10.04,0.46-13.25,0.57-38.83,0.57c-25.58,0-28.78-0.11-38.83-0.57c-10.02-0.46-16.87-2.05-22.86-4.38
	c-6.29-2.36-11.98-6.07-16.68-10.86c-4.79-4.7-8.5-10.4-10.86-16.68c-2.33-5.99-3.92-12.84-4.38-22.86
	c-0.46-10.04-0.57-13.25-0.57-38.83s0.11-28.78,0.57-38.83c0.46-10.02,2.05-16.87,4.37-22.86c2.36-6.28,6.07-11.98,10.87-16.68
	c4.7-4.79,10.4-8.5,16.68-10.86c5.99-2.33,12.84-3.92,22.86-4.38c10.04-0.46,13.25-0.57,38.83-0.57s28.78,0.11,38.83,0.57
	c10.02,0.46,16.87,2.05,22.86,4.37c6.28,2.36,11.98,6.07,16.68,10.87c4.79,4.7,8.5,10.4,10.86,16.68
	c2.33,5.99,3.92,12.84,4.38,22.86c0.46,10.04,0.57,13.25,0.57,38.83S258.06,192.78,257.6,202.83z"/>
</svg>
