<?xml version="1.0" encoding="utf-8"?>
<!-- Generator: Adobe Illustrator 24.3.0, SVG Export Plug-In . SVG Version: 6.00 Build 0)  -->
<svg version="1.1" id="Capa_1" xmlns="http://www.w3.org/2000/svg" xmlns:xlink="http://www.w3.org/1999/xlink" x="0px" y="0px"
	 viewBox="0 0 225.6 66.7" style="enable-background:new 0 0 225.6 66.7;" xml:space="preserve">
<style type="text/css">
	.st0{fill:#2C3D63;}
</style>
<g>
	<path class="st0" d="M5.9,9.6l5-6.2h3.9l0.8,3.3l-9.7,8L5.9,9.6L5.9,9.6z M5.9,3.4h3.5L5.9,7.7V3.4z M5.9,16.4l10-8.3l0.8,3.5
		L5.9,18.9V16.4L5.9,16.4z M5.9,20.4L17,12.8l1.6,6.9L5.9,26.9V20.4z M5.9,28.3l13-7.4l1.2,5.3L5.9,34.5V28.3z M5.9,35.9l8.6-5v4.3
		l-8.6,6.1C5.9,41.2,5.9,35.9,5.9,35.9z M14.5,40.2l-8.6,5v-2l8.6-6.8V40.2z M5.9,46.7l8.6-5v5.9l-8.6,4.3
		C5.9,51.9,5.9,46.7,5.9,46.7z M5.9,53.2l8.6-4.3v4.2l-8.6,3.5C5.9,56.6,5.9,53.2,5.9,53.2z M5.9,62.8v-4.9l8.6-3.5v5.3l-7,3.1
		L5.9,62.8L5.9,62.8z M14.5,62.8h-4l4-1.7V62.8z M14.7,30.8l5.8-3.3l1.9,8.2l-5.8,3.4L14.7,30.8z M24,42.8l-6,3l-1.2-5.5l5.9-3.4
		L24,42.8z M25.2,43.6l7.6-3.8l-1.4,6.4l-12.2,5l-0.9-4.1l6-3l0.4,1.6L25.2,43.6z M19.5,52.4l11.6-4.7L30,53.1l-9.4,4.1L19.5,52.4z
		 M27.9,62.8h-6.1l-1-4.5l8.8-3.8L27.9,62.8z M25.6,42.1l1.9-7.9l7.5-4.4l-1.8,8.5L25.6,42.1z M30.3,21.8l13.1-7.6v9.3l-15.6,9.1
		L30.3,21.8z M32.2,13.4L43.4,7v5.7l-12.8,7.4L32.2,13.4z M34.5,3.4h8.9v2.2l-10.8,6.2L34.5,3.4z M34.9,29.8l8.5-5v8.3l-8.5,4.3
		C34.9,37.4,34.9,29.8,34.9,29.8z M34.9,38.8l8.5-4.3v6.9l-8.5,3.5C34.9,44.8,34.9,38.8,34.9,38.8z M34.9,46.1l8.5-3.5v4.6l-8.5,3.7
		C34.9,50.9,34.9,46.1,34.9,46.1z M34.9,52.3l8.5-3.7v6.7l-8.5,5.2V52.3z M43.4,62.8h-8.5v-0.9l8.5-5.2V62.8L43.4,62.8z"/>
	<path class="st0" d="M64.2,58.5l-7.5,4.3h-2l0.8-6.2l9.3-2.5L64.2,58.5z M56.2,51.9l25.9-7.2l0.4,3.2l-8.3,4.8l-0.4-2.5h-8.4
		L65,52.8l-9.3,2.5L56.2,51.9z M56.9,46.6l24.8-4.4l0.2,1.3l-25.5,7.1L56.9,46.6z M57.3,43.4l9.3-2.8l-0.2,1.2h6.2l-0.4-3l8.5-2.6
		l0.8,4.9L57,45.4L57.3,43.4z M57.5,41.9l0.6-3.9l9.4-4l-0.7,5.2L57.5,41.9L57.5,41.9z M59.1,31.7l9.2-3.9l-0.6,4.9l-9.3,3.9
		L59.1,31.7z M63.7,62.8h-4.5L64,60L63.7,62.8z M68.5,26.3l-9.2,3.9l0.3-1.6l9.5-7.8L68.5,26.3z M60.7,21.5l16-11.3l0.4,2.6
		L59.9,26.9L60.7,21.5z M61.5,16.8L73.6,3.4h2.1l0.8,5.4L61,19.8L61.5,16.8z M62.7,9.1l5.8-5.7H72L61.8,14.6L62.7,9.1z M63.6,3.4
		h3.1L63,7.1L63.6,3.4z M77.3,14.1l1.2,7.9l-8.1,3.4L70,20.2L77.3,14.1z M70.7,26.7l8.1-3.5l0.7,4.4l-8.2,3.5L70.7,26.7z M71.5,32.3
		l8.2-3.5l1,6.2l-8.4,2.6L71.5,32.3z M74.4,54.1l8.3-4.8l0.4,3.2l-8.4,3.8L74.4,54.1z M75.5,62.8l-0.7-5.3l8.4-3.8l0.6,4.1l-5.7,5
		C78.2,62.8,75.5,62.8,75.5,62.8z M84.5,62.8H80l4-3.5L84.5,62.8z"/>
	<path class="st0" d="M95.8,12.5l4.5-9.1h8.1c1,0,1.6,0,1.7,0L95.8,16.7V12.5L95.8,12.5z M95.8,3.4H99l-3.2,6.4V3.4z M107.6,11.9
		h-2.9V16l-8.9,5.2v-2.8l15.8-14.7c3.2,0.5,5.4,1.9,6.6,4.2l-8.1,4.8C109.7,12.1,108.9,11.9,107.6,11.9z M95.8,22.6l8.9-5.2v3.1
		l-8.9,4.1V22.6z M95.8,28l8.9-2.7v3.6h1.8c1.2,0,1.9-0.1,2.3-0.2c1.5-0.6,2.3-1.9,2.3-3.8v-1.5l8.9-2.7v4.2c0,0.4,0,0.7,0,0.9
		l-24.2,7.7L95.8,28L95.8,28z M95.8,25.9l8.9-4.1V24l-8.9,2.7V25.9z M95.8,34.7l24.1-7.7c-0.1,1.1-0.4,2.3-0.9,3.4l-23.1,7.3
		C95.8,37.7,95.8,34.7,95.8,34.7z M106.3,36.8h-1.6v3.7l-8.9,2.3V39l22.4-7c-0.6,1.2-2.2,2.2-4.9,3.2l0.9,2.7l-7.1,1.9L106.3,36.8z
		 M95.8,44l8.9-2.3v3.8l-8.9,2.9V44z M95.8,49.6l8.9-2.9v5.6l-8.9,3.2V49.6z M95.8,56.8l8.9-3.2v3.8l-8.9,3.3V56.8z M104.7,62.8
		h-8.9V62l8.9-3.3V62.8z M107.4,40.9l7.2-1.9l0.9,2.7l-7.2,2.4L107.4,40.9z M108.6,45.4l7.4-2.5l1.6,4.7l-7.7,2.8L108.6,45.4z
		 M110.2,51.6l7.8-2.8l1.2,3.3l-8,3L110.2,51.6z M111.1,15.9c0-1.1-0.1-1.9-0.3-2.2l8-4.7c0.6,1.1,0.9,2.5,1.1,4.3l-8.8,4.1
		L111.1,15.9L111.1,15.9z M111.1,18.7l8.9-4.1v4.8l-8.9,2.7V18.7L111.1,18.7z M111.4,56.2l8.1-3l0.9,2.6l-7.8,4.8L111.4,56.2z
		 M122.9,62.8h-9.7l-0.2-1l7.9-4.9L122.9,62.8z"/>
	<path class="st0" d="M145.9,10.9L145.9,10.9c-2.4,0-3.6,1.3-3.6,4v0.9l-8.9,3.8v-5.4l20.8-9.6c1.6,1.1,2.7,2.7,3.3,4.7l-8.4,3.5
		C148.9,11.6,147.8,10.9,145.9,10.9z M133.4,21l8.9-3.8v3.1l-8.9,2.9V21z M133.4,24.5l8.9-2.9v4.6l-8.9,7.2V24.5z M133.4,35l8.9-7.2
		v5.3l-8.9,7.6V35z M133.4,51.3v-9.1l8.9-7.6v6.1L133.4,51.3z M134.2,9.4l14-6.8c2.3,0.2,3.9,0.7,4.9,1.3l-19.6,9
		C133.5,11.8,133.8,10.6,134.2,9.4z M133.5,53.1l8.8-10.5v6.6l-7.5,9.1C134.1,57.2,133.6,55.5,133.5,53.1z M145.8,2.5l-11.1,5.3
		C136,4.3,139.7,2.5,145.8,2.5z M135.4,59.5l6.8-8.3v0.2c0,1.8,0.3,2.8,1,3.2l-5.4,7.4C136.9,61.3,136.1,60.5,135.4,59.5z
		 M138.9,62.5l5.4-7.4c0.2,0.1,0.8,0.2,1.5,0.2c2.4,0,3.6-1.3,3.6-4V49l8.9-3.2v3.7l-16.2,14C140.8,63.2,139.7,62.9,138.9,62.5z
		 M158.3,51.3c0,8.3-4.2,12.5-12.5,12.5c-1.2,0-1.9,0-2.1-0.1L158.3,51V51.3L158.3,51.3z M149.4,15c0-0.5,0-0.8,0-0.8l8.4-3.6
		c0.3,1,0.4,2.5,0.4,4.4v0.3l-8.9,2.8V15H149.4z M158.3,23h-8.9v-3.6l8.9-2.8V23L158.3,23z M149.4,43.3h8.9v1.2l-8.9,3.2V43.3z"/>
	<path class="st0" d="M171.6,9.6l5.3-6.2h3.6v7.1l-8.9,5.4L171.6,9.6L171.6,9.6z M171.6,3.4h3.7l-3.7,4.4V3.4z M171.6,17.4l8.9-5.4
		v3.8l-8.9,5V17.4z M171.6,22.2l8.9-5v5.9l-8.9,2.8V22.2z M171.6,27.1l8.9-2.8v5.9l-8.9,5.7V27.1z M171.6,37.4l8.9-5.7v5.4l-8.9,3.4
		V37.4z M171.6,41.8l8.9-3.4v2l-8.9,7.1V41.8z M171.6,49l8.9-7.1v5.4l-8.9,6V49z M171.6,62.8v-8.1l8.9-6v4.8l-8.3,9.3L171.6,62.8
		L171.6,62.8z M180.5,62.8h-6.7l6.7-7.5V62.8z"/>
	<path class="st0" d="M201.5,58.5l-7.4,4.3h-2l0.8-6.2l9.3-2.5L201.5,58.5z M193.4,51.9l25.9-7.2l0.4,3.2l-8.3,4.8l-0.4-2.5h-8.4
		l-0.4,2.5l-9.3,2.5L193.4,51.9z M194.1,46.6l24.8-4.4l0.2,1.3l-25.5,7.1L194.1,46.6z M194.6,43.4l9.3-2.8l-0.1,1.2h6.2l-0.4-3
		l8.5-2.6l0.8,4.9l-24.5,4.3L194.6,43.4z M194.8,41.9l0.6-3.9l9.4-4l-0.7,5.2L194.8,41.9L194.8,41.9z M196.4,31.7l9.2-3.9l-0.6,4.9
		l-9.3,3.9L196.4,31.7z M200.9,62.8h-4.5l4.9-2.8L200.9,62.8z M205.8,26.3l-9.2,3.9l0.3-1.6l9.5-7.8L205.8,26.3z M198,21.5l16-11.3
		l0.4,2.6l-17.2,14.1L198,21.5z M198.8,16.8l12.1-13.4h2.1l0.9,5.4l-15.5,10.9L198.8,16.8z M200,9.1l5.8-5.7h3.5l-10.1,11.2L200,9.1
		z M200.8,3.4h3.1l-3.7,3.7L200.8,3.4z M214.6,14.1l1.2,7.9l-8.1,3.4l-0.6-5.3L214.6,14.1z M208,26.7l8.1-3.5l0.7,4.4l-8.2,3.5
		L208,26.7z M208.7,32.3l8.2-3.5l1,6.2l-8.4,2.6L208.7,32.3z M211.6,54.1l8.3-4.8l0.4,3.2l-8.4,3.8L211.6,54.1z M212.8,62.8
		l-0.7-5.3l8.4-3.8l0.6,4.1l-5.7,5C215.4,62.8,212.8,62.8,212.8,62.8z M221.7,62.8h-4.5l4-3.5L221.7,62.8z"/>
</g>
</svg>
