<?xml version="1.0" encoding="utf-8"?>
<!-- Generator: Adobe Illustrator 24.3.0, SVG Export Plug-In . SVG Version: 6.00 Build 0)  -->
<svg version="1.1" id="Capa_1" xmlns="http://www.w3.org/2000/svg" xmlns:xlink="http://www.w3.org/1999/xlink" x="0px" y="0px"
	 viewBox="0 0 225.56 66.66" style="enable-background:new 0 0 225.56 66.66;" xml:space="preserve">
<style type="text/css">
	.st0{fill:#4D4D4D;}
</style>
<g>
	<path class="st0" d="M5.9,9.6l5.02-6.17h3.85l0.79,3.3L5.9,14.78V9.6L5.9,9.6z M5.9,3.42h3.48L5.9,7.69V3.42z M5.9,16.35l9.96-8.32
		l0.82,3.48L5.89,18.9L5.9,16.35L5.9,16.35z M5.9,20.38l11.09-7.6l1.63,6.9L5.9,26.88V20.38z M5.9,28.28l13.02-7.36l1.24,5.3
		L5.9,34.49V28.28z M5.9,35.92l8.6-5v4.27l-8.6,6.06V35.92z M14.5,40.25l-8.6,5v-2l8.6-6.75V40.25z M5.9,46.67l8.6-5v5.94l-8.6,4.3
		V46.67z M5.9,53.24l8.6-4.3v4.21l-8.6,3.48V53.24z M5.9,62.83v-4.9l8.6-3.48v5.33l-7.02,3.06H5.9z M14.5,62.83h-4l4-1.72V62.83z
		 M14.72,30.8l5.75-3.33l1.9,8.21l-5.82,3.4L14.72,30.8z M24.04,42.82l-6,3.03l-1.21-5.54l5.85-3.39L24.04,42.82z M25.19,43.61
		l7.57-3.79l-1.36,6.39l-12.21,4.97l-0.88-4.12l6.02-3.03l0.37,1.63L25.19,43.61z M19.47,52.39l11.63-4.72l-1.15,5.42l-9.45,4.09
		L19.47,52.39z M27.86,62.83h-6.12l-0.97-4.45l8.84-3.85L27.86,62.83z M25.56,42.09l1.85-7.9l7.45-4.36l-1.79,8.48L25.56,42.09z
		 M30.28,21.77l13.11-7.6v9.3l-15.63,9.09L30.28,21.77z M32.22,13.38L43.4,7.03v5.72l-12.75,7.42L32.22,13.38z M34.52,3.42h8.87
		v2.21l-10.81,6.15L34.52,3.42z M34.88,29.83l8.51-4.97v8.3l-8.51,4.27V29.83z M34.88,38.76l8.51-4.27v6.87l-8.51,3.45V38.76z
		 M34.88,46.12l8.51-3.45v4.57l-8.51,3.7V46.12z M34.88,52.26l8.51-3.69v6.69l-8.51,5.21V52.26z M43.4,62.83h-8.52V61.9l8.51-5.24
		L43.4,62.83L43.4,62.83z"/>
	<path class="st0" d="M64.22,58.51l-7.45,4.33h-2.03l0.82-6.24l9.27-2.52L64.22,58.51z M56.2,51.91l25.86-7.17l0.42,3.21l-8.3,4.85
		l-0.37-2.55h-8.45L65,52.79l-9.27,2.52L56.2,51.91z M56.9,46.6l24.8-4.39l0.21,1.3L56.38,50.6L56.9,46.6z M57.32,43.37l9.3-2.85
		l-0.15,1.24h6.24l-0.4-2.97l8.48-2.57l0.75,4.87l-24.5,4.27L57.32,43.37z M57.53,41.88l0.6-3.9l9.36-3.97l-0.7,5.21l-9.3,2.85
		L57.53,41.88z M59.13,31.68l9.17-3.94l-0.63,4.87l-9.32,3.94L59.13,31.68z M63.65,62.83h-4.48l4.87-2.82L63.65,62.83z M68.52,26.34
		l-9.17,3.9l0.27-1.57l9.51-7.79L68.52,26.34z M60.74,21.47L76.7,10.2l0.4,2.55L59.9,26.86L60.74,21.47z M61.5,16.77L73.58,3.42
		h2.06l0.85,5.45L61.01,19.8L61.5,16.77z M62.71,9.12l5.75-5.69h3.48L61.83,14.6L62.71,9.12z M63.59,3.42h3.15l-3.72,3.67
		L63.59,3.42z M77.34,14.14l1.24,7.9l-8.06,3.42l-0.55-5.27L77.34,14.14z M70.7,26.71l8.06-3.45l0.7,4.39l-8.17,3.45L70.7,26.71z
		 M71.46,32.34l8.17-3.48l0.97,6.15l-8.45,2.57L71.46,32.34z M74.37,54.09l8.3-4.85l0.42,3.24l-8.45,3.79L74.37,54.09z M75.52,62.83
		l-0.7-5.33l8.45-3.79l0.55,4.12l-5.67,5C78.16,62.83,75.52,62.83,75.52,62.83z M84.46,62.83h-4.48L84,59.29L84.46,62.83z"/>
	<path class="st0" d="M95.81,12.54l4.52-9.12h8.12c1.03,0,1.6,0.01,1.7,0.03L95.81,16.71L95.81,12.54
		C95.81,12.54,95.81,12.54,95.81,12.54z M95.81,3.42h3.18l-3.18,6.39V3.42z M107.55,11.87h-2.88v4.09l-8.87,5.24v-2.82l15.81-14.69
		c3.19,0.52,5.39,1.94,6.6,4.24l-8.09,4.79C109.74,12.15,108.88,11.87,107.55,11.87z M95.81,22.59l8.87-5.24v3.06l-8.87,4.15V22.59z
		 M95.81,27.98l8.87-2.67v3.57h1.82c1.17,0,1.95-0.07,2.33-0.21c1.53-0.6,2.3-1.88,2.3-3.82v-1.48l8.87-2.7v4.18
		c0,0.44-0.01,0.74-0.03,0.88l-24.17,7.69L95.81,27.98L95.81,27.98z M95.81,25.89l8.87-4.15v2.3l-8.87,2.67V25.89z M95.81,34.7
		l24.08-7.66c-0.08,1.15-0.4,2.27-0.94,3.36l-23.14,7.27C95.81,37.68,95.81,34.7,95.81,34.7z M106.28,36.76h-1.6v3.67l-8.87,2.33
		v-3.82l22.38-7.02c-0.59,1.17-2.23,2.25-4.94,3.24l0.94,2.73l-7.09,1.9L106.28,36.76z M95.81,44l8.87-2.33v3.75l-8.87,2.94V44z
		 M95.81,49.64l8.87-2.94v5.57l-8.87,3.24V49.64z M95.81,56.81l8.87-3.24v3.85l-8.87,3.3V56.81z M104.68,62.83h-8.87v-0.82l8.87-3.3
		V62.83z M107.4,40.94l7.17-1.9l0.94,2.72l-7.24,2.42L107.4,40.94z M108.58,45.36l7.36-2.45l1.63,4.7l-7.66,2.79L108.58,45.36z
		 M110.22,51.57l7.75-2.82l1.15,3.27l-7.99,3L110.22,51.57z M111.13,15.92c0-1.13-0.11-1.86-0.33-2.18l7.99-4.72
		c0.55,1.09,0.91,2.53,1.09,4.33l-8.75,4.06L111.13,15.92C111.12,15.92,111.13,15.92,111.13,15.92z M111.13,18.74l8.87-4.12v4.79
		l-8.87,2.7L111.13,18.74L111.13,18.74z M111.43,56.18l8.09-3l0.9,2.63l-7.81,4.82L111.43,56.18z M122.88,62.83h-9.69l-0.25-0.97
		l7.9-4.87L122.88,62.83z"/>
	<path class="st0" d="M145.86,10.93h-0.06c-2.36,0-3.54,1.34-3.54,4.03v0.94l-8.87,3.79v-5.42l20.83-9.57
		c1.62,1.09,2.71,2.66,3.3,4.7l-8.36,3.54C148.87,11.61,147.78,10.95,145.86,10.93z M133.38,20.99l8.87-3.79v3.14l-8.87,2.85V20.99z
		 M133.38,24.46l8.87-2.85v4.57l-8.87,7.21V24.46z M133.38,34.98l8.87-7.21v5.3l-8.87,7.57V34.98z M133.38,51.3v-9.09l8.87-7.57
		v6.09L133.38,51.3z M134.17,9.42l14.02-6.84c2.29,0.22,3.9,0.67,4.85,1.33l-19.59,8.99C133.5,11.77,133.75,10.61,134.17,9.42z
		 M133.47,53.14l8.79-10.54v6.63l-7.51,9.12C134.06,57.21,133.64,55.47,133.47,53.14z M145.83,2.48l-11.09,5.33
		C135.99,4.26,139.69,2.48,145.83,2.48z M135.44,59.45l6.82-8.3v0.15c0,1.75,0.34,2.83,1.03,3.21l-5.39,7.36
		C136.88,61.28,136.07,60.48,135.44,59.45z M138.92,62.48l5.39-7.36c0.25,0.14,0.75,0.21,1.52,0.21c2.4,0,3.6-1.34,3.6-4.03V49
		l8.87-3.21v3.67l-16.17,14.02C140.76,63.25,139.69,62.91,138.92,62.48z M158.3,51.3c0,8.32-4.16,12.48-12.48,12.51
		c-1.23,0-1.95-0.02-2.15-0.06l14.63-12.69L158.3,51.3L158.3,51.3z M149.43,14.96c0-0.48-0.01-0.75-0.03-0.82l8.45-3.6
		c0.3,1.03,0.45,2.5,0.45,4.42v0.33l-8.87,2.82V14.96z M158.3,22.96h-8.87v-3.57l8.87-2.82L158.3,22.96L158.3,22.96z M149.43,43.3
		h8.87v1.18l-8.87,3.21V43.3z"/>
	<path class="st0" d="M171.63,9.65l5.27-6.24h3.6v7.15l-8.87,5.45V9.65L171.63,9.65z M171.63,3.42h3.7l-3.7,4.36V3.42z
		 M171.63,17.44l8.87-5.45v3.79l-8.87,5V17.44z M171.63,22.16l8.87-5v5.9l-8.87,2.75V22.16z M171.63,27.1l8.87-2.75v5.9l-8.87,5.72
		V27.1z M171.63,37.43l8.87-5.72v5.39l-8.87,3.42V37.43z M171.63,41.82l8.87-3.42v1.97l-8.87,7.09V41.82z M171.63,48.99l8.87-7.09
		v5.39l-8.87,5.97V48.99z M171.63,62.83v-8.09l8.87-5.97v4.75l-8.27,9.29L171.63,62.83L171.63,62.83z M180.5,62.83h-6.67l6.67-7.48
		V62.83z"/>
	<path class="st0" d="M201.48,58.51l-7.45,4.33H192l0.82-6.24l9.27-2.52L201.48,58.51z M193.45,51.91l25.86-7.17l0.42,3.21
		l-8.3,4.85l-0.37-2.55h-8.45l-0.37,2.55l-9.27,2.52L193.45,51.91z M194.15,46.6l24.8-4.39l0.21,1.3l-25.53,7.09L194.15,46.6z
		 M194.58,43.37l9.29-2.85l-0.15,1.24h6.24l-0.4-2.97l8.48-2.57l0.75,4.87l-24.5,4.27L194.58,43.37z M194.78,41.88l0.6-3.9
		l9.36-3.97l-0.7,5.21l-9.3,2.85L194.78,41.88z M196.39,31.68l9.17-3.94l-0.63,4.87l-9.32,3.94L196.39,31.68z M200.9,62.83h-4.48
		l4.87-2.82L200.9,62.83z M205.78,26.34l-9.17,3.9l0.27-1.57l9.51-7.79L205.78,26.34z M198,21.47l15.96-11.27l0.4,2.55l-17.21,14.11
		L198,21.47z M198.75,16.77l12.09-13.36h2.06l0.85,5.45L198.27,19.8L198.75,16.77z M199.97,9.12l5.75-5.69h3.48L199.09,14.6
		L199.97,9.12z M200.84,3.42h3.15l-3.72,3.67L200.84,3.42z M214.59,14.14l1.24,7.9l-8.06,3.42l-0.55-5.27L214.59,14.14z
		 M207.96,26.71l8.06-3.45l0.7,4.39l-8.17,3.45L207.96,26.71z M208.72,32.34l8.17-3.48l0.97,6.15l-8.45,2.57L208.72,32.34z
		 M211.62,54.09l8.3-4.85l0.42,3.24l-8.45,3.79L211.62,54.09z M212.77,62.83l-0.7-5.33l8.45-3.79l0.55,4.12l-5.67,5
		C215.41,62.83,212.77,62.83,212.77,62.83z M221.71,62.83h-4.48l4.03-3.54L221.71,62.83z"/>
</g>
</svg>
